<?xml version="1.0" encoding="UTF-8" standalone="no"?>
<svg
   viewBox="0 0 8 8"
   fill="none"
   x="0px"
   y="0px"
   version="1.1"
   id="svg4"
   sodipodi:docname="calendar.svg"
   inkscape:version="1.3.2 (091e20e, 2023-11-25)"
   xmlns:inkscape="http://www.inkscape.org/namespaces/inkscape"
   xmlns:sodipodi="http://sodipodi.sourceforge.net/DTD/sodipodi-0.dtd"
   xmlns="http://www.w3.org/2000/svg"
   xmlns:svg="http://www.w3.org/2000/svg">

  <path
     d="m 1.80,5.68 c 0,-0.18 0.15,-0.33 0.33,-0.33 h 2.38 c 0.18,0 0.33,0.15 0.33,0.33 0,0.18 -0.15,0.33 -0.33,0.33 H 2.13 c -0.18,0 -0.33,-0.15 -0.33,-0.33 z"
     fill="#000000"
     id="path1"
     style="stroke-width:0.44" />
  <path
     d="m 2.13,4.05 c -0.18,0 -0.33,0.15 -0.33,0.33 0,0.18 0.15,0.33 0.33,0.33 h 1.34 c 0.18,0 0.33,-0.15 0.33,-0.33 0,-0.18 -0.15,-0.33 -0.33,-0.33 z"
     fill="#000000"
     id="path2"
     style="stroke-width:0.44" />
  <path
     fill-rule="evenodd"
     clip-rule="evenodd"
     d="m 2.52,0.4 c 0.17,0 0.31,0.14 0.31,0.32 v 0.11 h 0.5 1.32 c 0.18,-4.29e-6 0.34,-4.29e-6 0.5,0 V 0.72 c 0,-0.18 0.14,-0.32 0.31,-0.32 0.17,0 0.31,0.14 0.31,0.32 v 0.13 c 0.09,0 0.18,0.01 0.27,0.02 C 6.42,0.92 6.74,1.03 7,1.3 7.25,1.56 7.36,1.89 7.41,2.29 7.45,2.67 7.45,3.15 7.45,3.75 V 5.13 C 7.45,5.7454214 7.5816152,6.9132244 6.73,7.41 6.52,7.54 6.3,7.59 6.04,7.61 5.79,7.63 5.48,7.63 5.09,7.63 H 3.35 C 2.77,7.63 2.3,7.63 1.94,7.58 1.55,7.53 1.23,7.42 0.97,7.15 0.71,6.89 0.6,6.56 0.55,6.16 0.5,5.78 0.5,5.3 0.5,4.7 V 3.77 C 0.5,3.17 0.5,2.69 0.55,2.31 0.6,1.91 0.71,1.58 0.97,1.32 1.23,1.05 1.55,0.94 1.93,0.89 2.01,0.88 2.1,0.87 2.2,0.87 V 0.72 C 2.2,0.54 2.34,0.4 2.51,0.4 Z m 2.66,1.09 v 0.1 c 0,0.18 0.14,0.32 0.31,0.32 0.17,0 0.31,-0.14 0.31,-0.32 V 1.51 c 0.06,0 0.12,0.01 0.18,0.02 0.31,0.04 0.47,0.12 0.59,0.24 0.11,0.12 0.19,0.29 0.23,0.61 0,0.06 0.01,0.12 0.01,0.19 H 1.17 C 1.17,2.51 1.18,2.44 1.18,2.38 1.22,2.06 1.29,1.89 1.41,1.77 1.52,1.65 1.69,1.57 2,1.53 2.05,1.53 2.12,1.52 2.18,1.51 v 0.08 c 0,0.18 0.14,0.32 0.31,0.32 0.17,0 0.31,-0.14 0.31,-0.32 V 1.49 H 3.33 4.6 c 0.19,0 0.37,7.05e-5 0.53,0 z M 1.14,3.25 v 0.54 0.87 c 0,0.62 6.52e-4,1.06 0.04,1.4 0.04,0.32 0.11,0.49 0.23,0.61 0.11,0.12 0.28,0.2 0.59,0.24 0.32,0.04 0.74,0.04 1.35,0.04 h 1.7 c 0.4,0 0.68,-3.06e-4 0.9,-0.02 C 6.16,6.92 6.28,6.88 6.37,6.82 6.55,6.76 6.67,6.63 6.76,6.48 6.81,6.39 6.85,6.26 6.87,6.04 6.89,5.82 6.89,5.53 6.89,5.11 V 3.8 c 0,-0.2 -8.55e-5,-0.38 0,-0.54 z"
     fill="#000000"
     />
</svg>
