<?xml version="1.0" encoding="UTF-8" standalone="no"?>
<svg
   xml:space="preserve"
   viewBox="0 0 8 8"
   version="1.1"
   id="svg3"
   sodipodi:docname="clients.svg"
   inkscape:version="1.3.2 (091e20e, 2023-11-25)"
   xmlns:inkscape="http://www.inkscape.org/namespaces/inkscape"
   xmlns:sodipodi="http://sodipodi.sourceforge.net/DTD/sodipodi-0.dtd"
   xmlns="http://www.w3.org/2000/svg"
   xmlns:svg="http://www.w3.org/2000/svg">
    
  <path
   id="path4"
   d="M 5.00,5.24 C 4.69,5.52 4.37,5.85 4.07,6.16 L 3.27,5.36 3.14,5.23 2.98,5.33 1.23,6.34 C 1.04,6.45 0.90,6.83 0.79,7.13 0.74,7.26 0.70,7.37 0.67,7.41 L 0.45,7.78 H 0.88 7.24 7.67 L 7.45,7.41 C 7.43,7.37 7.38,7.26 7.34,7.13 7.23,6.83 7.09,6.45 6.89,6.34 Z M 3.06,5.84 C 3.40,6.18 3.74,6.51 4.07,6.85 4.40,6.52 4.73,6.20 5.05,5.87 l 1.61,0.90 c 0.01,0.00 0.12,0.28 0.20,0.50 H 1.25 C 1.33,7.06 1.43,6.79 1.45,6.78 l 0.03,-0.01 z"
    /><path
   d="m 2.47,4.24 c 0.02,-0.03 0.04,-0.07 0.06,-0.11 0.01,-0.04 0.03,-0.08 0.05,-0.11 L 2.76,3.54 3.02,3.97 c 0.14,0.22 0.31,0.39 0.52,0.51 0.19,0.11 0.43,0.16 0.69,0.16 v 0 c 0.09,0 -0.00,0 0.02,0 l 0.00,-9.05e-5 v -3.6e-5 C 4.76,4.64 5.16,4.40 5.44,4.00 5.74,3.57 5.91,2.96 5.90,2.22 c -1.81e-5,-0.01 0,-0.02 0,-0.04 C 5.89,1.70 5.74,1.32 5.46,1.07 5.18,0.82 4.77,0.68 4.25,0.68 c -0.01,2.70e-5 -0.03,0 -0.05,0 C 3.90,0.68 3.65,0.73 3.44,0.82 3.24,0.90 3.07,1.02 2.94,1.17 L 2.84,1.29 2.69,1.25 C 2.59,1.22 2.51,1.21 2.43,1.23 2.35,1.24 2.27,1.28 2.19,1.33 2.10,1.40 2.03,1.49 1.97,1.60 1.90,1.72 1.86,1.86 1.84,2.01 v 0 c -0.07,0.48 0.02,1.00 0.11,1.51 0.00,0.03 0.01,0.06 0.02,0.16 v 0.00 c 0.00,0.03 0.01,0.06 0.01,0.09 l 1.98e-4,-4.52e-5 c 0.01,0.08 0.03,0.18 0.04,0.28 l -0.00,0.07 c -0.00,0.00 0,0 -0.00,0.01 0,0 0,0 0,0.00 l -0.00,0.02 c -0.03,0.13 -0.15,0.25 -0.27,0.34 0.09,0.02 0.18,0.03 0.27,0.01 0.16,-0.02 0.31,-0.12 0.44,-0.31 v 0 z M 3.31,4.91 C 3.14,4.81 2.99,4.69 2.86,4.55 2.65,4.84 2.39,5.00 2.10,5.05 1.80,5.09 1.48,5.01 1.17,4.81 l -0.00,-0.00 c -0.03,-0.02 -0.06,-0.05 -0.06,-0.05 L 0.83,4.53 1.13,4.36 c 3.61e-5,-1.81e-5 0.02,-0.01 0.05,-0.03 l 0.00,-0.00 C 1.26,4.29 1.36,4.23 1.44,4.17 1.50,4.13 1.54,4.10 1.55,4.08 v -0.00 C 1.55,4.03 1.54,3.97 1.53,3.91 v 0 c -0.00,-0.04 -0.01,-0.08 -0.02,-0.11 v -7.23e-5 C 1.50,3.78 1.49,3.71 1.47,3.63 1.37,3.09 1.27,2.53 1.35,1.96 v -9.94e-5 C 1.38,1.76 1.44,1.56 1.54,1.38 1.62,1.22 1.74,1.07 1.90,0.95 l 0.01,-0.00 C 2.05,0.86 2.19,0.79 2.34,0.77 2.44,0.75 2.55,0.75 2.67,0.76 2.83,0.60 3.03,0.48 3.26,0.38 3.52,0.28 3.83,0.22 4.18,0.21 c 0.02,0 0.04,0 0.07,0 0.64,0 1.17,0.18 1.54,0.51 0.37,0.34 0.58,0.83 0.59,1.45 0,0.01 0,0.03 0,0.05 0,0.84 -0.19,1.55 -0.55,2.05 -0.36,0.53 -0.90,0.84 -1.55,0.85 h -0.00 l -0.01,1.26e-4 c -0.05,0 0.05,0 -0.02,0 v 0 c -0.34,0 -0.65,-0.07 -0.93,-0.22 z"
   />
</svg>
