<?xml version="1.0" encoding="UTF-8" standalone="no"?>
<!-- Uploaded to: SVG Repo, www.svgrepo.com, Generator: SVG Repo Mixer Tools -->

<svg
   width="800px"
   height="800px"
   viewBox="0 0 21 21"
   version="1.1"
   id="svg4"
   sodipodi:docname="coins-svgrepo-com (1).svg"
   inkscape:version="1.3.2 (091e20e, 2023-11-25)"
   xmlns:inkscape="http://www.inkscape.org/namespaces/inkscape"
   xmlns:sodipodi="http://sodipodi.sourceforge.net/DTD/sodipodi-0.dtd"
   xmlns="http://www.w3.org/2000/svg"
   xmlns:svg="http://www.w3.org/2000/svg">
  <defs
     id="defs4" />
  <sodipodi:namedview
     id="namedview4"
     pagecolor="#ffffff"
     bordercolor="#000000"
     borderopacity="0.25"
     inkscape:showpageshadow="2"
     inkscape:pageopacity="0.0"
     inkscape:pagecheckerboard="0"
     inkscape:deskcolor="#d1d1d1"
     inkscape:zoom="0.40891367"
     inkscape:cx="407.17641"
     inkscape:cy="513.55584"
     inkscape:window-width="1512"
     inkscape:window-height="945"
     inkscape:window-x="0"
     inkscape:window-y="37"
     inkscape:window-maximized="0"
     inkscape:current-layer="g4" />
  <g
     fill="none"
     fill-rule="evenodd"
     stroke="#000000"
     stroke-linecap="round"
     stroke-linejoin="round"
     transform="translate(1 3)"
     id="g4">
    <path
       d="m 19.049583,9.1187635 v 3.3316705 c 0,1.443163 -3.480493,3.331672 -7.7739,3.331672 -4.2934061,0 -7.7738998,-1.888509 -7.7738998,-3.331672 0,-0.474787 0,-1.400252 0,-2.776392"
       id="path1"
       style="stroke-width:1.11056" />
    <path
       d="m 3.8281293,9.9613794 c 0.9604118,1.2751816 3.931365,2.4708786 7.4475537,2.4708786 4.293407,0 7.7739,-1.782711 7.7739,-3.3160703 0,-0.8604159 -1.095897,-1.8034461 -2.816376,-2.4654578"
       id="path2"
       style="stroke-width:1.11056" />
    <path
       d="m 15.717911,3.5659777 v 3.3316714 c 0,1.4431619 -3.480493,3.3316709 -7.7738992,3.3316709 -4.2934064,0 -7.77390009,-1.888509 -7.77390009,-3.3316709 0,-0.7121815 0,-2.6194899 0,-3.3316714"
       id="path3"
       style="stroke-width:1.11056" />
    <path
       d="m 7.9440118,6.8794723 c 4.2934062,0 7.7738992,-1.782711 7.7738992,-3.3160704 0,-1.5333595 -3.480493,-3.32909571 -7.7738992,-3.32909571 -4.2934064,0 -7.77390009,1.79573621 -7.77390009,3.32909571 0,1.5333594 3.48049369,3.3160704 7.77390009,3.3160704 z"
       id="path4"
       style="stroke-width:1.11056" />
  </g>
  <rect
     style="fill:#000000;stroke-width:0.0291521"
     id="rect4"
     width="0.49410382"
     height="2.4705191"
     x="13.024934"
     y="9.7235365" />
  <rect
     style="fill:#000000;stroke-width:0.0291521"
     id="rect4-7"
     width="0.49410382"
     height="2.4705191"
     x="10.867728"
     y="10.11836" />
  <rect
     style="fill:#000000;stroke-width:0.0291521"
     id="rect4-7-9"
     width="0.49410382"
     height="2.4705191"
     x="5.9676385"
     y="10.052406" />
  <rect
     style="fill:#000000;stroke-width:0.0291521"
     id="rect4-7-9-7"
     width="0.49410382"
     height="2.4705191"
     x="8.4404564"
     y="10.285904" />
  <rect
     style="fill:#000000;stroke-width:0.0291521"
     id="rect4-7-9-3"
     width="0.49410382"
     height="2.4705191"
     x="3.990906"
     y="9.4929552" />
  <rect
     style="fill:#000000;stroke-width:0.0291521"
     id="rect4-7-9-3-8"
     width="0.49410382"
     height="2.4705191"
     x="2.5258868"
     y="8.7499056" />
  <rect
     style="fill:#000000;stroke-width:0.0291521"
     id="rect4-7-9-3-8-0"
     width="0.49410382"
     height="2.4705191"
     x="14.894361"
     y="8.8129854" />
  <rect
     style="fill:#000000;stroke-width:0.0291521"
     id="rect4-72"
     width="0.49410382"
     height="2.4705191"
     x="16.266151"
     y="15.300325" />
  <rect
     style="fill:#000000;stroke-width:0.0291521"
     id="rect4-7-3"
     width="0.49410382"
     height="2.4705191"
     x="14.108945"
     y="15.695149" />
  <rect
     style="fill:#000000;stroke-width:0.0291521"
     id="rect4-7-9-6"
     width="0.49410382"
     height="2.4705191"
     x="9.2088547"
     y="15.629194" />
  <rect
     style="fill:#000000;stroke-width:0.0291521"
     id="rect4-7-9-7-5"
     width="0.49410382"
     height="2.4705191"
     x="11.681673"
     y="15.862694" />
  <rect
     style="fill:#000000;stroke-width:0.0291521"
     id="rect4-7-9-3-5"
     width="0.49410382"
     height="2.4705191"
     x="7.2321215"
     y="15.069743" />
  <rect
     style="fill:#000000;stroke-width:0.0291521"
     id="rect4-7-9-3-8-8"
     width="0.49410382"
     height="2.4705191"
     x="5.7671037"
     y="14.326694" />
  <rect
     style="fill:#000000;stroke-width:0.0291521"
     id="rect4-7-9-3-8-0-1"
     width="0.49410382"
     height="2.4705191"
     x="18.135576"
     y="14.389773" />
</svg>
