<?xml version="1.0" encoding="UTF-8"?>
<!DOCTYPE svg PUBLIC "-//W3C//DTD SVG 1.1//EN" "http://www.w3.org/Graphics/SVG/1.1/DTD/svg11.dtd">
<!-- Creator: CorelDRAW X7 -->
<svg xmlns="http://www.w3.org/2000/svg" xml:space="preserve" width="64px" height="64px" version="1.1" style="shape-rendering:geometricPrecision; text-rendering:geometricPrecision; image-rendering:optimizeQuality; fill-rule:evenodd; clip-rule:evenodd"
viewBox="0 0 90830 90830"
 xmlns:xlink="http://www.w3.org/1999/xlink">
 <g id="Layer_x0020_1">
  <metadata id="CorelCorpID_0Corel-Layer"/>
  <path class="fil0" d="M26363 28694l38105 0 24 6394 -4504 33060c-303,2229 -1842,4090 -4090,4090l-20965 0c-2250,0 -3787,-1861 -4090,-4090l-4504 -33060 24 -6394zm4898 -6962l8954 0c0,-1730 1384,-3140 3120,-3140l4161 0c1735,0 3119,1410 3119,3140l8954 0c2971,0 4685,3135 4685,4814l-37677 0c0,-1679 1714,-4814 4684,-4814zm6990 16675l969 24999c87,2239 -3471,2564 -3626,0l-1536 -24999c-184,-2997 4053,-3634 4193,0zm18522 0l-1536 24999c-156,2562 -3714,2240 -3627,0l969 -24999c141,-3633 4377,-2997 4194,0zm-9261 0l-283 24999c-26,2398 -3601,2399 -3627,0l-284 -24999c-32,-3010 4227,-3011 4194,0z"/>
 </g>
</svg>
