<?xml version="1.0" encoding="utf-8"?>
<!-- Generator: Adobe Illustrator 16.0.0, SVG Export Plug-In . SVG Version: 6.00 Build 0)  -->
<!DOCTYPE svg PUBLIC "-//W3C//DTD SVG 1.1//EN" "http://www.w3.org/Graphics/SVG/1.1/DTD/svg11.dtd">
<svg version="1.1" id="Layer_1" xmlns="http://www.w3.org/2000/svg" xmlns:xlink="http://www.w3.org/1999/xlink" x="0px" y="0px"
	 width="64px" height="64px" viewBox="0 0 64 64" enable-background="new 0 0 64 64" xml:space="preserve">
<path fill="#000" d="M21.64,42.257c0.62,0.119,1.182,0.348,1.674,0.701c0.473,0.339,0.888,0.798,1.238,1.391
	c0.277,0.468,0.077,0.336,0.561,0.438c0.593,0.123,1.131,0.347,1.605,0.687c0.496,0.355,0.928,0.844,1.29,1.48L16.65,51.001
	l1.567-11.263c0.628,0.119,1.196,0.348,1.694,0.705c0.493,0.354,0.924,0.838,1.285,1.471C21.399,42.271,21.267,42.186,21.64,42.257z
	 M44.648,14.299L44.648,14.299c2.953,2.183,3.584,6.383,1.402,9.337l-10.74-7.935C37.492,12.748,41.693,12.116,44.648,14.299z
	 M44.791,25.34L29.507,46.023c-0.439-0.726-0.963-1.295-1.563-1.726c-0.461-0.331-0.965-0.578-1.504-0.748L41.625,23L44.791,25.34z
	 M25.618,42.935c-0.377-0.531-0.809-0.964-1.289-1.31c-0.448-0.321-0.936-0.563-1.459-0.733l15.175-20.537l2.754,2.034
	L25.618,42.935z M22.029,40.301c-0.385-0.549-0.825-0.994-1.316-1.348c-0.584-0.419-1.234-0.701-1.943-0.867l15.283-20.682
	l3.166,2.34L22.029,40.301z"/>
</svg>
