<?xml version="1.0" encoding="utf-8"?>
<!-- Generator: Adobe Illustrator 16.0.0, SVG Export Plug-In . SVG Version: 6.00 Build 0)  -->
<!DOCTYPE svg PUBLIC "-//W3C//DTD SVG 1.1//EN" "http://www.w3.org/Graphics/SVG/1.1/DTD/svg11.dtd">
<svg version="1.1" id="Capa_1" xmlns="http://www.w3.org/2000/svg" xmlns:xlink="http://www.w3.org/1999/xlink" x="0px" y="0px"
	 width="512px" height="512px" viewBox="0 0 512 512" enable-background="new 0 0 512 512" xml:space="preserve">
<g>
	<path fill="#FFFFFF" d="M493.277,154.52l-22.628,22.639L334.866,41.395l22.628-22.641c24.997-25,65.532-25,90.53,0l45.253,45.265
		C518.24,89.004,518.24,129.522,493.277,154.52z M176.464,426.031c-6.249,6.249-6.249,16.369,0,22.619
		c6.252,6.284,16.377,6.284,22.626,0l248.935-248.866l-22.653-22.641L176.464,426.031z M63.312,312.906
		c-6.252,6.254-6.252,16.371,0,22.623c6.249,6.25,16.374,6.25,22.626,0L334.866,86.645l-22.619-22.626L63.312,312.906z
		 M357.465,109.254l-248.905,248.9c-12.498,12.475-12.467,32.754,0,45.253c12.504,12.5,32.751,12.558,45.283-0.034L402.748,154.52
		L357.465,109.254z M153.778,471.219c-7.653-7.663-11.343-17.374-12.715-27.38c-3.254,0.502-6.53,0.97-9.877,0.97
		c-17.097,0-33.153-6.683-45.248-18.777c-12.095-12.125-18.751-28.16-18.751-45.254c0-3.117,0.468-6.154,0.907-9.184
		c-10.345-1.408-19.905-5.939-27.406-13.439c-0.719-0.715-0.967-1.684-1.622-2.467L0.001,511.996l155.902-39.027
		C155.216,472.343,154.438,471.874,153.778,471.219z"/>
</g>
</svg>
