<svg id="Capa_1" enable-background="new 0 0 473.41 473.41" height="512" viewBox="0 0 473.41 473.41" width="512" xmlns="http://www.w3.org/2000/svg">
    <path fill="#fff" d="m443.823 88.765h-88.765v-73.971c0-8.177-6.617-14.794-14.794-14.794h-207.118c-8.177 0-14.794 6.617-14.794 14.794v73.971h-88.764v29.588h14.39l57.116 342.691c1.185 7.137 7.354 12.367 14.592 12.367h241.636c7.238 0 13.407-5.23 14.592-12.367l57.116-342.691h14.794c-.001 0-.001-29.588-.001-29.588zm-295.882-59.177h177.529v59.176h-177.529zm196.854 414.235h-216.584l-54.241-325.47h325.065z"/>
    <path fill="#fff" d="m-360.4 301.292h207.543v29.592h-207.543z" transform="matrix(.064 -.998 .998 .064 -.546 19.418)"/>
    <path fill="#fff" d="m141.635 202.346h29.592v207.543h-29.592z" transform="matrix(.998 -.064 .064 .998 -.628 .399)"/>
</svg>
